HIERARCHY
ROOT Hips
{
	OFFSET	0.00	0.00	0.00
	CHANNELS 6 Xposition Yposition Zposition Zrotation Xrotation Yrotation
	JOINT LeftUpLeg
	{
		OFFSET	 0.126116	-0.065224	 0.014019
		CHANNELS 3 Zrotation Xrotation Yrotation
		JOINT LeftLeg
		{
			OFFSET	 0.000000	 0.569914	 0.000000
			CHANNELS 3 Zrotation Xrotation Yrotation
			JOINT LeftFoot
			{
				OFFSET	 0.000000	 0.544423	 0.000000
				CHANNELS 3 Zrotation Xrotation Yrotation
				JOINT LeftToeBase
				{
					OFFSET	 0.000000	 0.207117	 0.000000
					CHANNELS 3 Zrotation Xrotation Yrotation
					End Site
					{
						OFFSET	 0.000000	 0.207117	 0.000000
					}
				}
			}
		}
	}
	JOINT RightUpLeg
	{
		OFFSET	-0.124023	-0.065224	 0.008373
		CHANNELS 3 Zrotation Xrotation Yrotation
		JOINT RightLeg
		{
			OFFSET	 0.000000	 0.570047	 0.000000
			CHANNELS 3 Zrotation Xrotation Yrotation
			JOINT RightFoot
			{
				OFFSET	 0.000000	 0.544354	 0.000000
				CHANNELS 3 Zrotation Xrotation Yrotation
				JOINT RightToeBase
				{
					OFFSET	 0.000000	 0.207540	 0.000000
					CHANNELS 3 Zrotation Xrotation Yrotation
					End Site
					{
						OFFSET	 0.000000	 0.207540	 0.000000
					}
				}
			}
		}
	}
	JOINT Spine
	{
		OFFSET	 0.000184	 0.117403	 0.007763
		CHANNELS 3 Zrotation Xrotation Yrotation
		JOINT Spine1
		{
			OFFSET	 0.000000	 0.137269	 0.000000
			CHANNELS 3 Zrotation Xrotation Yrotation
			JOINT Spine2
			{
				OFFSET	 0.000000	 0.156879	 0.000000
				CHANNELS 3 Zrotation Xrotation Yrotation
				JOINT LeftShoulder
				{
					OFFSET	 0.080501	 0.160143	 0.002496
					CHANNELS 3 Zrotation Xrotation Yrotation
					JOINT LeftArm
					{
						OFFSET	 0.000000	 0.164363	 0.000000
						CHANNELS 3 Zrotation Xrotation Yrotation
						JOINT LeftForeArm
						{
							OFFSET	 0.000000	 0.364576	 0.000000
							CHANNELS 3 Zrotation Xrotation Yrotation
							JOINT LeftHand
							{
								OFFSET	 0.000000	 0.360812	 0.000000
								CHANNELS 3 Zrotation Xrotation Yrotation
								JOINT LeftHandIndex1
								{
									OFFSET	 0.000000	 0.086006	 0.000000
									CHANNELS 3 Zrotation Xrotation Yrotation
									JOINT LeftHandIndex2
									{
										OFFSET	 0.000000	 0.047237	 0.000000
										CHANNELS 3 Zrotation Xrotation Yrotation
										JOINT LeftHandIndex3
										{
											OFFSET	-0.004284	 0.038165	 0.000551
											CHANNELS 3 Zrotation Xrotation Yrotation
											End Site
											{
												OFFSET	-0.004284	 0.038165	 0.000551
											}
										}
									}
								}
							}
						}
					}
				}
				JOINT Neck
				{
					OFFSET	 0.000000	 0.176489	 0.000000
					CHANNELS 3 Zrotation Xrotation Yrotation
					JOINT Head
					{
						OFFSET	 0.000000	 0.077941	 0.001747
						CHANNELS 3 Zrotation Xrotation Yrotation
						End Site
						{
							OFFSET	 0.000000	 0.077941	 0.001747
						}
					}
				}
				JOINT RightShoulder
				{
					OFFSET	-0.080363	 0.159706	-0.000306
					CHANNELS 3 Zrotation Xrotation Yrotation
					JOINT RightArm
					{
						OFFSET	 0.000000	 0.164196	 0.000000
						CHANNELS 3 Zrotation Xrotation Yrotation
						JOINT RightForeArm
						{
							OFFSET	 0.000000	 0.365611	 0.000000
							CHANNELS 3 Zrotation Xrotation Yrotation
							JOINT RightHand
							{
								OFFSET	 0.000000	 0.360648	 0.000000
								CHANNELS 3 Zrotation Xrotation Yrotation
								JOINT RightHandIndex1
								{
									OFFSET	 0.000000	 0.069977	 0.000000
									CHANNELS 3 Zrotation Xrotation Yrotation
									JOINT RightHandIndex2
									{
										OFFSET	 0.000000	 0.052305	 0.000000
										CHANNELS 3 Zrotation Xrotation Yrotation
										JOINT RightHandIndex3
										{
											OFFSET	 0.009002	 0.042196	 0.000782
											CHANNELS 3 Zrotation Xrotation Yrotation
											End Site
											{
												OFFSET	 0.009002	 0.042196	 0.000782
											}
										}
									}
								}
							}
						}
					}
				}
			}
		}
	}
}
MOTION
Frames:    9
Frame Time: 0.03333334
-0.023418	 1.259690	 0.173001	 4.949124	 0.287329	 173.994500	 176.814000	 16.261670	 34.704280	 3.011106	-29.672010	 1.397377	 51.771870	 48.561910	-68.003430	 4.912825	 28.009660	-6.307250	-166.284600	 0.569872	-28.187220	-0.441247	-5.106264	 2.101485	-47.669820	 48.468110	 46.714680	-0.380366	 31.176390	 1.636880	 1.431555	 3.784467	-14.779810	 9.787917	 10.014150	-8.213628	-8.400885	-8.217958	 25.423410	-112.544800	 3.105099	 88.310950	-11.771320	 50.886780	 36.532220	 31.743170	-1.587515	 1.001793	-20.227570	-5.868107	-95.107030	-7.993197	 12.529110	-5.839170	-7.228848	 12.659510	 2.803396	 4.963066	-4.014628	-0.346955	 1.499305	-13.886050	 1.362757	-2.371317	 8.168359	-18.110070	 109.102600	 0.692217	-88.604090	-13.570470	 69.065590	 12.998000	-5.100842	-0.485409	 41.334220	-8.942699	 14.552370	-104.344900	 1.994197	 8.251076	 8.960175	 15.202970	 20.259770	-6.347142	-8.239867	-2.131385	 0.447455
-0.024066	 1.259450	 0.172610	 5.103783	 0.185194	 174.163000	 176.819600	 16.459420	 34.895440	 3.042252	-29.925780	 1.483769	 51.887300	 48.586820	-68.167690	 4.912829	 28.009700	-6.307225	-166.151700	 0.654446	-28.021530	-0.441205	-5.105649	 1.927399	-47.807480	 48.388320	 46.936070	-0.395179	 31.194480	 1.651570	 1.523612	 3.663661	-14.778390	 10.722460	 10.498820	-8.442507	-9.444478	-9.058473	 25.239710	-112.460600	 2.999657	 88.296560	-12.566720	 50.335950	 36.789200	 32.569610	-1.619816	 0.969967	-19.045680	-5.838885	-94.255640	-7.896160	 12.608610	-5.863266	-7.229290	 12.641060	 2.800878	 4.963066	-4.014628	-0.346955	 1.412370	-13.754040	 1.407286	-2.362599	 8.240972	-18.711300	 108.997400	 0.772638	-88.644810	-12.976530	 69.577100	 12.723850	-5.146786	-0.531290	 41.126960	-10.355350	 14.626790	-104.369800	 1.910736	 8.025887	 8.957970	 15.203310	 20.309720	-6.360815	-8.239867	-2.131385	 0.447455
-0.024782	 1.258913	 0.171893	 5.213287	 0.042767	 174.413800	 176.721400	 16.733190	 35.185370	 3.084295	-30.266730	 1.606169	 52.053760	 48.615200	-68.407990	 4.912838	 28.009740	-6.307190	-166.066200	 0.776046	-27.780620	-0.441335	-5.107167	 1.683765	-48.019710	 48.279950	 47.259240	-0.416864	 31.220960	 1.673076	 1.607689	 3.553720	-14.815370	 11.486740	 10.848720	-8.645993	-10.316750	-9.749489	 25.071830	-112.337500	 2.845370	 88.275770	-13.356810	 49.907050	 36.946930	 33.277460	-1.644423	 0.909621	-17.896340	-5.835905	-92.997590	-7.754085	 12.724840	-5.898784	-7.229936	 12.614060	 2.797192	 4.963066	-4.014628	-0.346955	 1.285081	-13.561030	 1.472759	-2.320594	 8.552370	-19.680960	 108.843500	 0.890442	-88.704100	-12.063610	 70.027020	 12.311020	-5.221254	-0.598284	 40.825230	-11.518510	 14.663930	-104.507500	 1.788693	 7.696425	 8.954151	 15.203830	 20.382800	-6.380824	-8.239867	-2.131385	 0.447455
-0.025628	 1.257953	 0.170689	 5.272440	-0.139774	 174.749400	 176.494700	 17.089740	 35.584020	 3.142459	-30.734430	 1.766249	 52.297920	 48.661270	-68.757620	 4.912848	 28.009790	-6.307141	-165.595100	 1.624519	-27.470160	-0.588073	-6.791410	 1.363717	-48.936500	 48.720810	 48.651740	-0.445684	 31.256100	 1.701658	 1.667895	 3.453122	-14.877490	 12.069610	 11.079720	-8.801971	-11.000830	-10.285920	 24.926660	-112.174100	 2.640444	 88.248700	-14.172310	 49.590410	 37.026210	 33.841960	-1.660292	 0.819129	-16.734250	-5.854283	-91.282470	-7.565216	 12.879040	-5.946426	-7.230798	 12.578220	 2.792300	 4.963066	-4.014628	-0.346955	 1.115866	-13.304960	 1.560299	-2.237997	 9.135612	-21.035430	 108.639500	 1.047135	-88.782370	-10.668120	 70.389840	 11.612870	-5.326411	-0.685834	 40.425770	-12.438340	 14.701430	-104.716800	 1.626731	 7.258929	 8.947992	 15.204570	 20.479830	-6.407407	-8.239867	-2.131385	 0.447455
-0.026616	 1.256528	 0.168906	 5.272817	-0.357134	 175.160800	 176.128000	 17.517110	 36.085360	 3.217755	-31.332990	 1.957960	 52.628320	 48.733430	-69.224170	 4.912861	 28.009870	-6.307083	-165.054300	 2.731802	-27.102560	-0.785506	-9.038224	 0.991816	-50.175240	 49.329770	 50.489670	-0.480757	 31.298800	 1.736442	 1.684949	 3.363998	-14.952070	 12.443460	 11.197960	-8.888355	-11.461960	-10.647540	 24.817590	-111.975700	 2.391224	 88.216580	-14.987700	 49.388020	 37.023040	 34.204060	-1.665338	 0.699725	-15.551360	-5.883086	-89.136590	-7.335304	 13.066270	-6.005078	-7.231849	 12.534650	 2.786352	 4.963066	-4.014628	-0.346955	 0.909870	-12.994020	 1.667631	-2.106139	 9.995929	-22.740350	 108.391700	 1.237947	-88.876750	-8.718320	 70.633320	 10.542170	-5.459857	-0.790240	 39.943200	-13.094230	 14.766430	-104.959100	 1.429983	 6.727113	 8.938835	 15.205520	 20.597780	-6.439745	-8.239867	-2.131385	 0.447455
-0.027769	 1.254546	 0.166432	 5.199781	-0.613317	 175.658100	 175.588700	 18.019250	 36.710670	 3.313683	-32.084720	 2.184808	 53.064590	 48.836540	-69.834720	 4.912875	 28.009950	-6.307011	-164.533000	 3.996977	-26.668000	-1.013443	-11.597420	 0.568660	-51.675630	 50.017100	 52.656650	-0.523123	 31.350270	 1.778459	 1.638800	 3.298711	-14.895880	 12.574110	 11.145270	-8.806943	-11.655530	-10.747160	 24.552920	-111.736500	 2.090476	 88.178990	-15.759690	 49.351140	 36.897890	 34.269200	-1.655329	 0.544903	-14.201710	-5.934365	-85.995380	-7.057488	 13.291800	-6.076912	-7.233123	 12.482110	 2.779180	 4.963066	-4.014628	-0.346955	 0.660934	-12.619460	 1.798446	-1.912702	 11.148460	-24.731460	 108.093200	 1.468642	-88.989500	-6.143931	 70.714040	 9.055987	-5.625719	-0.912796	 39.365940	-13.530290	 14.717890	-104.754900	 1.192805	 6.085636	 8.925357	 15.206770	 20.740040	-6.478786	-8.239867	-2.131385	 0.447455
-0.028741	 1.252035	 0.163350	 4.931345	-0.912814	 176.245500	 174.787000	 18.565780	 37.472290	 3.418441	-32.891750	 2.437625	 53.563700	 48.940280	-70.543170	 4.912893	 28.010050	-6.306929	-164.145200	 5.438909	-26.173970	-1.274657	-14.472860	 0.102177	-53.471600	 50.764950	 55.167850	-0.572848	 31.410550	 1.827776	 1.424414	 3.339815	-13.688170	 12.126990	 10.379500	-7.899344	-11.184440	-9.870695	 22.666300	-111.456700	 1.737886	 88.136510	-16.145860	 49.888420	 36.486220	 33.511970	-1.607230	 0.338959	-11.989940	-6.125710	-78.222860	-6.731270	 13.555620	-6.162595	-7.234622	 12.420540	 2.770775	 4.963066	-4.014628	-0.346955	 0.368596	-12.181290	 1.953600	-1.716841	 12.345240	-26.104140	 107.743900	 1.739699	-89.120100	-3.161024	 70.388080	 7.393640	-5.831563	-1.051777	 38.694690	-13.770910	 13.445980	-100.627500	 0.915042	 5.334079	 8.906191	 15.208370	 20.906720	-6.524581	-8.239867	-2.131385	 0.447455
-0.029692	 1.249411	 0.160000	 4.588593	-1.249561	 176.896000	 173.858700	 19.130200	 38.338080	 3.527112	-33.713420	 2.705035	 54.093230	 49.038040	-71.306540	 4.912913	 28.010160	-6.306837	-163.937400	 6.796103	-25.622550	-1.514451	-17.048680	-0.374131	-55.248820	 51.388190	 57.586940	-0.628514	 31.477850	 1.882987	 1.177641	 3.417621	-12.308900	 11.306250	 9.401964	-6.801431	-10.316690	-8.682059	 20.540370	-111.144400	 1.343721	 88.091160	-16.142240	 50.723220	 35.729170	 32.378260	-1.540568	 0.101511	-9.746039	-6.216296	-69.373500	-6.365889	 13.849800	-6.260265	-7.236310	 12.351750	 2.761386	 4.963066	-4.014628	-0.346955	 0.041114	-11.692690	 2.129345	-1.458077	 13.730460	-27.647180	 107.354400	 2.043502	-89.264100	-0.455352	 69.929630	 6.146063	-6.063047	-1.200120	 37.952220	-13.317870	 11.920140	-95.989000	 0.604798	 4.494564	 8.880483	 15.210330	 21.092950	-6.575813	-8.239867	-2.131385	 0.447455
-0.030449	 1.247185	 0.156871	 4.173990	-1.640071	 177.628000	 172.845100	 19.693890	 39.320450	 3.621635	-34.415780	 2.980024	 54.564980	 49.088850	-72.026250	 4.912935	 28.010290	-6.306732	-163.951900	 8.019833	-24.989810	-1.712271	-19.121610	-0.854451	-56.862740	 51.817540	 59.731320	-0.691838	 31.554180	 1.945793	 0.933468	 3.532987	-10.769490	 10.077100	 8.194853	-5.548599	-9.035810	-7.207478	 18.121360	-110.790300	 0.896074	 88.042270	-15.578850	 51.933940	 34.470750	 31.053650	-1.462660	-0.167607	-7.708429	-6.203290	-59.338470	-5.950000	 14.182950	-6.373613	-7.238239	 12.273670	 2.750730	 4.963066	-4.014628	-0.346955	-0.331719	-11.139360	 2.331880	-1.116842	 15.331100	-29.403450	 106.913200	 2.389436	-89.425000	 6.108077	 69.748490	 1.465875	-9.751529	-1.673080	 37.074140	-10.452790	 9.142262	-91.063540	 0.252659	 3.542063	 8.845825	 15.212770	 21.304320	-6.634048	-8.239867	-2.131385	 0.447455
